<mxfile host="app.diagrams.net" modified="2023-04-17T13:49:17.767Z" agent="Mozilla/5.0 (Macintosh; Intel Mac OS X 10_15_7) AppleWebKit/605.1.15 (KHTML, like Gecko) Version/16.3 Safari/605.1.15" etag="ZWNT7npgfZJ2YoIjaNfq" version="21.1.8" type="device">
  <diagram name="Page-1" id="e4mxoKHnR1RlSHyS7ilc">
    <mxGraphModel dx="386" dy="476" grid="1" gridSize="10" guides="1" tooltips="1" connect="1" arrows="1" fold="1" page="1" pageScale="1" pageWidth="850" pageHeight="1100" math="0" shadow="0">
      <root>
        <mxCell id="0" />
        <mxCell id="1" parent="0" />
        <mxCell id="_ICEIOHpA0E_arMUJKk7-4" value="&lt;font color=&quot;#ff2600&quot;&gt;&lt;span style=&quot;caret-color: rgb(255, 38, 0);&quot;&gt;company&lt;/span&gt;&lt;/font&gt;" style="swimlane;whiteSpace=wrap;html=1;strokeColor=#ff2600;" parent="1" vertex="1">
          <mxGeometry x="473" y="126" width="190" height="324" as="geometry" />
        </mxCell>
        <mxCell id="_ICEIOHpA0E_arMUJKk7-5" value="&lt;div style=&quot;&quot;&gt;&lt;font color=&quot;#00cc00&quot;&gt;&lt;span style=&quot;caret-color: rgb(0, 204, 0);&quot;&gt;&lt;u&gt;employer_id&lt;/u&gt;&lt;/span&gt;&lt;/font&gt;&lt;/div&gt;&lt;div style=&quot;&quot;&gt;&lt;font color=&quot;#00cc00&quot;&gt;&lt;span style=&quot;caret-color: rgb(0, 204, 0);&quot;&gt;employer_name&lt;/span&gt;&lt;/font&gt;&lt;/div&gt;&lt;div style=&quot;&quot;&gt;&lt;font color=&quot;#00cc00&quot;&gt;&lt;span style=&quot;caret-color: rgb(0, 204, 0);&quot;&gt;benefits_rating&lt;/span&gt;&lt;/font&gt;&lt;/div&gt;&lt;div style=&quot;&quot;&gt;&lt;font color=&quot;#00cc00&quot;&gt;&lt;span style=&quot;caret-color: rgb(0, 204, 0);&quot;&gt;benefits_num_rating&lt;/span&gt;&lt;/font&gt;&lt;/div&gt;&lt;div style=&quot;&quot;&gt;&lt;font color=&quot;#00cc00&quot;&gt;&lt;span style=&quot;caret-color: rgb(0, 204, 0);&quot;&gt;benefits_employer_summary&lt;/span&gt;&lt;/font&gt;&lt;/div&gt;&lt;div style=&quot;&quot;&gt;&lt;font color=&quot;#00cc00&quot;&gt;&lt;span style=&quot;caret-color: rgb(0, 204, 0);&quot;&gt;logo&lt;/span&gt;&lt;/font&gt;&lt;/div&gt;&lt;div style=&quot;&quot;&gt;&lt;font color=&quot;#00cc00&quot;&gt;&lt;span style=&quot;caret-color: rgb(0, 204, 0);&quot;&gt;rating&lt;/span&gt;&lt;/font&gt;&lt;/div&gt;&lt;div style=&quot;&quot;&gt;&lt;font color=&quot;#00cc00&quot;&gt;&lt;span style=&quot;caret-color: rgb(0, 204, 0);&quot;&gt;featured_video&lt;/span&gt;&lt;/font&gt;&lt;/div&gt;&lt;div style=&quot;&quot;&gt;&lt;font color=&quot;#00cc00&quot;&gt;&lt;span style=&quot;caret-color: rgb(0, 204, 0);&quot;&gt;foundation_year&lt;/span&gt;&lt;/font&gt;&lt;/div&gt;&lt;div style=&quot;&quot;&gt;&lt;font color=&quot;#00cc00&quot;&gt;&lt;span style=&quot;caret-color: rgb(0, 204, 0);&quot;&gt;headquarters&lt;/span&gt;&lt;/font&gt;&lt;/div&gt;&lt;div style=&quot;&quot;&gt;&lt;font color=&quot;#00cc00&quot;&gt;&lt;span style=&quot;caret-color: rgb(0, 204, 0);&quot;&gt;industry&lt;/span&gt;&lt;/font&gt;&lt;/div&gt;&lt;div style=&quot;&quot;&gt;&lt;font color=&quot;#00cc00&quot;&gt;&lt;span style=&quot;caret-color: rgb(0, 204, 0);&quot;&gt;industry_id&lt;/span&gt;&lt;/font&gt;&lt;/div&gt;&lt;div style=&quot;&quot;&gt;&lt;font color=&quot;#00cc00&quot;&gt;&lt;span style=&quot;caret-color: rgb(0, 204, 0);&quot;&gt;revenue&lt;/span&gt;&lt;/font&gt;&lt;/div&gt;&lt;div style=&quot;&quot;&gt;&lt;font color=&quot;#00cc00&quot;&gt;&lt;span style=&quot;caret-color: rgb(0, 204, 0);&quot;&gt;sector&lt;/span&gt;&lt;/font&gt;&lt;/div&gt;&lt;div style=&quot;&quot;&gt;&lt;font color=&quot;#00cc00&quot;&gt;&lt;span style=&quot;caret-color: rgb(0, 204, 0);&quot;&gt;sector_id&lt;/span&gt;&lt;/font&gt;&lt;/div&gt;&lt;div style=&quot;&quot;&gt;&lt;font color=&quot;#00cc00&quot;&gt;&lt;span style=&quot;caret-color: rgb(0, 204, 0);&quot;&gt;size&lt;/span&gt;&lt;/font&gt;&lt;/div&gt;&lt;div style=&quot;&quot;&gt;&lt;font color=&quot;#00cc00&quot;&gt;&lt;span style=&quot;caret-color: rgb(0, 204, 0);&quot;&gt;type&lt;/span&gt;&lt;/font&gt;&lt;/div&gt;&lt;div style=&quot;&quot;&gt;&lt;font color=&quot;#00cc00&quot;&gt;&lt;span style=&quot;caret-color: rgb(0, 204, 0);&quot;&gt;description&lt;/span&gt;&lt;/font&gt;&lt;/div&gt;&lt;div style=&quot;&quot;&gt;&lt;font color=&quot;#00cc00&quot;&gt;&lt;span style=&quot;caret-color: rgb(0, 204, 0);&quot;&gt;website_url&lt;/span&gt;&lt;/font&gt;&lt;/div&gt;&lt;div style=&quot;&quot;&gt;&lt;font color=&quot;#00cc00&quot;&gt;&lt;span style=&quot;caret-color: rgb(0, 204, 0);&quot;&gt;video_url&lt;/span&gt;&lt;/font&gt;&lt;/div&gt;" style="text;html=1;align=left;verticalAlign=middle;resizable=0;points=[];autosize=1;strokeColor=none;fillColor=none;" parent="_ICEIOHpA0E_arMUJKk7-4" vertex="1">
          <mxGeometry x="5" y="30" width="180" height="290" as="geometry" />
        </mxCell>
        <mxCell id="_ICEIOHpA0E_arMUJKk7-11" value="&lt;font color=&quot;#ff2600&quot;&gt;&lt;span style=&quot;caret-color: rgb(255, 38, 0);&quot;&gt;photos&lt;/span&gt;&lt;/font&gt;" style="swimlane;whiteSpace=wrap;html=1;strokeColor=#ff2600;" parent="1" vertex="1">
          <mxGeometry x="260" y="610" width="131" height="101" as="geometry" />
        </mxCell>
        <mxCell id="_ICEIOHpA0E_arMUJKk7-12" value="&lt;div style=&quot;&quot;&gt;&lt;font color=&quot;#00cc00&quot;&gt;&lt;span style=&quot;caret-color: rgb(0, 204, 0);&quot;&gt;&lt;u&gt;pe_id_unique&lt;/u&gt;&lt;/span&gt;&lt;/font&gt;&lt;/div&gt;&lt;div style=&quot;&quot;&gt;&lt;font color=&quot;#00cc00&quot;&gt;&lt;span style=&quot;caret-color: rgb(0, 204, 0);&quot;&gt;p_id&lt;/span&gt;&lt;/font&gt;&lt;/div&gt;&lt;div style=&quot;&quot;&gt;&lt;font color=&quot;#00cc00&quot;&gt;&lt;span style=&quot;caret-color: rgb(0, 204, 0);&quot;&gt;p_caption&lt;/span&gt;&lt;/font&gt;&lt;/div&gt;&lt;div style=&quot;&quot;&gt;&lt;font color=&quot;#00cc00&quot;&gt;&lt;span style=&quot;caret-color: rgb(0, 204, 0);&quot;&gt;p_photo_id&lt;/span&gt;&lt;/font&gt;&lt;/div&gt;&lt;div style=&quot;&quot;&gt;&lt;font color=&quot;#00cc00&quot;&gt;&lt;span style=&quot;caret-color: rgb(0, 204, 0);&quot;&gt;p_photo_url&lt;/span&gt;&lt;/font&gt;&lt;/div&gt;" style="text;html=1;align=left;verticalAlign=middle;resizable=0;points=[];autosize=1;strokeColor=none;fillColor=none;" parent="_ICEIOHpA0E_arMUJKk7-11" vertex="1">
          <mxGeometry x="6" y="21" width="100" height="80" as="geometry" />
        </mxCell>
        <mxCell id="_ICEIOHpA0E_arMUJKk7-13" value="&lt;font color=&quot;#ff2600&quot;&gt;&lt;span style=&quot;caret-color: rgb(255, 38, 0);&quot;&gt;reviews&lt;/span&gt;&lt;/font&gt;" style="swimlane;whiteSpace=wrap;html=1;strokeColor=#ff2600;" parent="1" vertex="1">
          <mxGeometry x="503" y="610" width="130" height="200" as="geometry" />
        </mxCell>
        <mxCell id="_ICEIOHpA0E_arMUJKk7-14" value="&lt;div style=&quot;&quot;&gt;&lt;font color=&quot;#00cc00&quot;&gt;&lt;span style=&quot;caret-color: rgb(0, 204, 0);&quot;&gt;&lt;u&gt;re_id_unique&lt;/u&gt;&lt;/span&gt;&lt;/font&gt;&lt;/div&gt;&lt;div style=&quot;&quot;&gt;&lt;font color=&quot;#00cc00&quot;&gt;&lt;span style=&quot;caret-color: rgb(0, 204, 0);&quot;&gt;r_id&lt;/span&gt;&lt;/font&gt;&lt;/div&gt;&lt;div style=&quot;&quot;&gt;&lt;font color=&quot;#00cc00&quot;&gt;&lt;span style=&quot;caret-color: rgb(0, 204, 0);&quot;&gt;r_cons&lt;/span&gt;&lt;/font&gt;&lt;/div&gt;&lt;div style=&quot;&quot;&gt;&lt;font color=&quot;#00cc00&quot;&gt;&lt;span style=&quot;caret-color: rgb(0, 204, 0);&quot;&gt;r_date&lt;/span&gt;&lt;/font&gt;&lt;/div&gt;&lt;div style=&quot;&quot;&gt;&lt;font color=&quot;#00cc00&quot;&gt;&lt;span style=&quot;caret-color: rgb(0, 204, 0);&quot;&gt;r_is_featured&lt;/span&gt;&lt;/font&gt;&lt;/div&gt;&lt;div style=&quot;&quot;&gt;&lt;font color=&quot;#00cc00&quot;&gt;&lt;span style=&quot;caret-color: rgb(0, 204, 0);&quot;&gt;r_helpful_count&lt;/span&gt;&lt;/font&gt;&lt;/div&gt;&lt;div style=&quot;&quot;&gt;&lt;font color=&quot;#00cc00&quot;&gt;&lt;span style=&quot;caret-color: rgb(0, 204, 0);&quot;&gt;r_response_id&lt;/span&gt;&lt;/font&gt;&lt;/div&gt;&lt;div style=&quot;&quot;&gt;&lt;font color=&quot;#00cc00&quot;&gt;&lt;span style=&quot;caret-color: rgb(0, 204, 0);&quot;&gt;r_pros&lt;/span&gt;&lt;/font&gt;&lt;/div&gt;&lt;div style=&quot;&quot;&gt;&lt;font color=&quot;#00cc00&quot;&gt;&lt;span style=&quot;caret-color: rgb(0, 204, 0);&quot;&gt;r_publish&lt;/span&gt;&lt;/font&gt;&lt;/div&gt;&lt;div style=&quot;&quot;&gt;&lt;font color=&quot;#00cc00&quot;&gt;&lt;span style=&quot;caret-color: rgb(0, 204, 0);&quot;&gt;r_publisher&lt;/span&gt;&lt;/font&gt;&lt;/div&gt;&lt;div style=&quot;&quot;&gt;&lt;font color=&quot;#00cc00&quot;&gt;&lt;span style=&quot;caret-color: rgb(0, 204, 0);&quot;&gt;r_company_rating&lt;/span&gt;&lt;/font&gt;&lt;/div&gt;" style="text;html=1;align=left;verticalAlign=middle;resizable=0;points=[];autosize=1;strokeColor=none;fillColor=none;" parent="_ICEIOHpA0E_arMUJKk7-13" vertex="1">
          <mxGeometry x="5" y="20" width="120" height="170" as="geometry" />
        </mxCell>
        <mxCell id="mNTclB5nGiLtDmcSX_Mv-4" value="&lt;font color=&quot;#ff2600&quot;&gt;&lt;span style=&quot;caret-color: rgb(255, 38, 0);&quot;&gt;benefits_comments&lt;/span&gt;&lt;/font&gt;" style="swimlane;whiteSpace=wrap;html=1;strokeColor=#ff2600;" parent="1" vertex="1">
          <mxGeometry x="143" y="271.5" width="140" height="162" as="geometry" />
        </mxCell>
        <mxCell id="mNTclB5nGiLtDmcSX_Mv-5" value="&lt;div style=&quot;&quot;&gt;&lt;font color=&quot;#00cc00&quot;&gt;&lt;span style=&quot;caret-color: rgb(0, 204, 0);&quot;&gt;&lt;u&gt;bce_id_unique&lt;/u&gt;&lt;/span&gt;&lt;/font&gt;&lt;/div&gt;&lt;div style=&quot;&quot;&gt;&lt;font color=&quot;#00cc00&quot;&gt;&lt;span style=&quot;caret-color: rgb(0, 204, 0);&quot;&gt;bc_id&lt;/span&gt;&lt;/font&gt;&lt;/div&gt;&lt;div style=&quot;&quot;&gt;&lt;font color=&quot;#00cc00&quot;&gt;&lt;span style=&quot;caret-color: rgb(0, 204, 0);&quot;&gt;bc_city&lt;/span&gt;&lt;/font&gt;&lt;/div&gt;&lt;div style=&quot;&quot;&gt;&lt;font color=&quot;#00cc00&quot;&gt;&lt;span style=&quot;caret-color: rgb(0, 204, 0);&quot;&gt;bc_comment&lt;/span&gt;&lt;/font&gt;&lt;/div&gt;&lt;div style=&quot;&quot;&gt;&lt;font color=&quot;#00cc00&quot;&gt;&lt;span style=&quot;caret-color: rgb(0, 204, 0);&quot;&gt;bc_date&lt;/span&gt;&lt;/font&gt;&lt;/div&gt;&lt;div style=&quot;&quot;&gt;&lt;font color=&quot;#00cc00&quot;&gt;&lt;span style=&quot;caret-color: rgb(0, 204, 0);&quot;&gt;bc_current_job&lt;/span&gt;&lt;/font&gt;&lt;/div&gt;&lt;div style=&quot;&quot;&gt;&lt;font color=&quot;#00cc00&quot;&gt;&lt;span style=&quot;caret-color: rgb(0, 204, 0);&quot;&gt;bc_job_title&lt;/span&gt;&lt;/font&gt;&lt;/div&gt;&lt;div style=&quot;&quot;&gt;&lt;font color=&quot;#00cc00&quot;&gt;&lt;span style=&quot;caret-color: rgb(0, 204, 0);&quot;&gt;bc_rating&lt;/span&gt;&lt;/font&gt;&lt;/div&gt;&lt;div style=&quot;&quot;&gt;&lt;font color=&quot;#00cc00&quot;&gt;&lt;span style=&quot;caret-color: rgb(0, 204, 0);&quot;&gt;bc_state&lt;/span&gt;&lt;/font&gt;&lt;/div&gt;" style="text;html=1;align=left;verticalAlign=middle;resizable=0;points=[];autosize=1;strokeColor=none;fillColor=none;" parent="mNTclB5nGiLtDmcSX_Mv-4" vertex="1">
          <mxGeometry x="5" y="22" width="100" height="140" as="geometry" />
        </mxCell>
        <mxCell id="mNTclB5nGiLtDmcSX_Mv-7" value="&lt;font color=&quot;#ff2600&quot;&gt;&lt;span style=&quot;caret-color: rgb(255, 38, 0);&quot;&gt;benefits_highlights&lt;/span&gt;&lt;/font&gt;" style="swimlane;whiteSpace=wrap;html=1;strokeColor=#ff2600;" parent="1" vertex="1">
          <mxGeometry x="143" y="455" width="140" height="105" as="geometry" />
        </mxCell>
        <mxCell id="mNTclB5nGiLtDmcSX_Mv-8" value="&lt;div style=&quot;&quot;&gt;&lt;font color=&quot;#00cc00&quot;&gt;&lt;span style=&quot;caret-color: rgb(0, 204, 0);&quot;&gt;&lt;u&gt;bhe_id_unique&lt;/u&gt;&lt;/span&gt;&lt;/font&gt;&lt;/div&gt;&lt;div style=&quot;&quot;&gt;&lt;font color=&quot;#00cc00&quot;&gt;&lt;span style=&quot;caret-color: rgb(0, 204, 0);&quot;&gt;bh_id&lt;/span&gt;&lt;/font&gt;&lt;/div&gt;&lt;div style=&quot;&quot;&gt;&lt;font color=&quot;#00cc00&quot;&gt;&lt;span style=&quot;caret-color: rgb(0, 204, 0);&quot;&gt;bh_phrase&lt;/span&gt;&lt;/font&gt;&lt;/div&gt;&lt;div style=&quot;&quot;&gt;&lt;font color=&quot;#00cc00&quot;&gt;&lt;span style=&quot;caret-color: rgb(0, 204, 0);&quot;&gt;bh_name&lt;/span&gt;&lt;/font&gt;&lt;/div&gt;&lt;div style=&quot;&quot;&gt;&lt;font color=&quot;#00cc00&quot;&gt;&lt;span style=&quot;caret-color: rgb(0, 204, 0);&quot;&gt;bh_count&lt;/span&gt;&lt;/font&gt;&lt;/div&gt;" style="text;html=1;align=left;verticalAlign=middle;resizable=0;points=[];autosize=1;strokeColor=none;fillColor=none;" parent="mNTclB5nGiLtDmcSX_Mv-7" vertex="1">
          <mxGeometry x="10" y="25" width="100" height="80" as="geometry" />
        </mxCell>
        <mxCell id="mNTclB5nGiLtDmcSX_Mv-11" value="&lt;font color=&quot;#ff2600&quot;&gt;&lt;span style=&quot;caret-color: rgb(255, 38, 0);&quot;&gt;reviews_responses&lt;/span&gt;&lt;/font&gt;" style="swimlane;whiteSpace=wrap;html=1;strokeColor=#ff2600;" parent="1" vertex="1">
          <mxGeometry x="488" y="930" width="160" height="140" as="geometry" />
        </mxCell>
        <mxCell id="mNTclB5nGiLtDmcSX_Mv-12" value="&lt;div style=&quot;&quot;&gt;&lt;font color=&quot;#00cc00&quot;&gt;&lt;span style=&quot;caret-color: rgb(0, 204, 0);&quot;&gt;&lt;u&gt;rr_id&lt;/u&gt;&lt;/span&gt;&lt;/font&gt;&lt;/div&gt;&lt;div style=&quot;&quot;&gt;&lt;font color=&quot;#00cc00&quot;&gt;&lt;span style=&quot;caret-color: rgb(0, 204, 0);&quot;&gt;rr_date&lt;/span&gt;&lt;/font&gt;&lt;/div&gt;&lt;div style=&quot;&quot;&gt;&lt;font color=&quot;#00cc00&quot;&gt;&lt;span style=&quot;caret-color: rgb(0, 204, 0);&quot;&gt;rr_helpful_count&lt;/span&gt;&lt;/font&gt;&lt;/div&gt;&lt;div style=&quot;&quot;&gt;&lt;font color=&quot;#00cc00&quot;&gt;&lt;span style=&quot;caret-color: rgb(0, 204, 0);&quot;&gt;rr_job_title&lt;/span&gt;&lt;/font&gt;&lt;/div&gt;&lt;div style=&quot;&quot;&gt;&lt;font color=&quot;#00cc00&quot;&gt;&lt;span style=&quot;caret-color: rgb(0, 204, 0);&quot;&gt;rr_not_helpful_count&lt;/span&gt;&lt;/font&gt;&lt;/div&gt;&lt;div style=&quot;&quot;&gt;&lt;font color=&quot;#00cc00&quot;&gt;&lt;span style=&quot;caret-color: rgb(0, 204, 0);&quot;&gt;rr_response_text&lt;/span&gt;&lt;/font&gt;&lt;/div&gt;&lt;div style=&quot;&quot;&gt;&lt;font color=&quot;#00cc00&quot;&gt;&lt;span style=&quot;caret-color: rgb(0, 204, 0);&quot;&gt;rr_update&lt;/span&gt;&lt;/font&gt;&lt;/div&gt;" style="text;html=1;align=left;verticalAlign=middle;resizable=0;points=[];autosize=1;strokeColor=none;fillColor=none;" parent="mNTclB5nGiLtDmcSX_Mv-11" vertex="1">
          <mxGeometry x="10" y="25" width="130" height="110" as="geometry" />
        </mxCell>
        <mxCell id="mNTclB5nGiLtDmcSX_Mv-13" value="&lt;font color=&quot;#ff2600&quot;&gt;&lt;span style=&quot;caret-color: rgb(255, 38, 0);&quot;&gt;salary&lt;/span&gt;&lt;/font&gt;" style="swimlane;whiteSpace=wrap;html=1;strokeColor=#ff2600;startSize=23;" parent="1" vertex="1">
          <mxGeometry x="113" y="80" width="170" height="174" as="geometry" />
        </mxCell>
        <mxCell id="mNTclB5nGiLtDmcSX_Mv-14" value="&lt;div style=&quot;&quot;&gt;&lt;font color=&quot;#00cc00&quot;&gt;&lt;span style=&quot;caret-color: rgb(0, 204, 0);&quot;&gt;&lt;u&gt;s_id_unique&lt;/u&gt;&lt;/span&gt;&lt;/font&gt;&lt;/div&gt;&lt;div style=&quot;&quot;&gt;&lt;font color=&quot;#00cc00&quot;&gt;&lt;span style=&quot;caret-color: rgb(0, 204, 0);&quot;&gt;s_id&lt;/span&gt;&lt;/font&gt;&lt;/div&gt;&lt;div style=&quot;&quot;&gt;&lt;font color=&quot;#00cc00&quot;&gt;&lt;span style=&quot;caret-color: rgb(0, 204, 0);&quot;&gt;s_base_pay&lt;/span&gt;&lt;/font&gt;&lt;/div&gt;&lt;div style=&quot;&quot;&gt;&lt;font color=&quot;#00cc00&quot;&gt;&lt;span style=&quot;caret-color: rgb(0, 204, 0);&quot;&gt;s_job_title&lt;/span&gt;&lt;/font&gt;&lt;/div&gt;&lt;div style=&quot;&quot;&gt;&lt;span style=&quot;caret-color: rgb(0, 204, 0); color: rgb(0, 204, 0); background-color: initial;&quot;&gt;s_pay&lt;/span&gt;&lt;/div&gt;&lt;blockquote style=&quot;margin: 0 0 0 40px; border: none; padding: 0px;&quot;&gt;&lt;span style=&quot;caret-color: rgb(0, 204, 0); color: rgb(0, 204, 0); white-space: pre;&quot;&gt; &lt;/span&gt;&lt;span style=&quot;caret-color: rgb(0, 204, 0); color: rgb(0, 204, 0);&quot;&gt;period&lt;br&gt;&lt;/span&gt;&lt;span style=&quot;caret-color: rgb(0, 204, 0); color: rgb(0, 204, 0); white-space: pre;&quot;&gt; &lt;/span&gt;&lt;span style=&quot;caret-color: rgb(0, 204, 0); color: rgb(0, 204, 0);&quot;&gt;percentile_ten&lt;br&gt;&lt;/span&gt;&lt;span style=&quot;caret-color: rgb(0, 204, 0); color: rgb(0, 204, 0); white-space: pre;&quot;&gt; &lt;/span&gt;&lt;span style=&quot;caret-color: rgb(0, 204, 0); color: rgb(0, 204, 0);&quot;&gt;percentile_ninety&lt;/span&gt;&lt;div style=&quot;&quot;&gt;&lt;font color=&quot;#00cc00&quot;&gt;&lt;span style=&quot;caret-color: rgb(0, 204, 0);&quot;&gt;&lt;span style=&quot;white-space: pre;&quot;&gt; &lt;/span&gt;percentile_fifty&lt;/span&gt;&lt;/font&gt;&lt;/div&gt;&lt;/blockquote&gt;&lt;div style=&quot;&quot;&gt;&lt;font color=&quot;#00cc00&quot;&gt;&lt;span style=&quot;caret-color: rgb(0, 204, 0);&quot;&gt;s_who_reported&lt;/span&gt;&lt;/font&gt;&lt;/div&gt;" style="text;html=1;align=left;verticalAlign=middle;resizable=0;points=[];autosize=1;strokeColor=none;fillColor=none;" parent="mNTclB5nGiLtDmcSX_Mv-13" vertex="1">
          <mxGeometry x="5" y="19" width="160" height="150" as="geometry" />
        </mxCell>
        <mxCell id="mNTclB5nGiLtDmcSX_Mv-15" value="has" style="rhombus;whiteSpace=wrap;html=1;fontSize=16;" parent="1" vertex="1">
          <mxGeometry x="343" y="175" width="60" height="60" as="geometry" />
        </mxCell>
        <mxCell id="mNTclB5nGiLtDmcSX_Mv-28" value="&lt;font color=&quot;#ff2600&quot;&gt;&lt;span style=&quot;caret-color: rgb(255, 38, 0);&quot;&gt;job _listings&lt;/span&gt;&lt;/font&gt;" style="swimlane;whiteSpace=wrap;html=1;strokeColor=#ff2600;" parent="1" vertex="1">
          <mxGeometry x="900" y="80" width="160" height="320" as="geometry" />
        </mxCell>
        <mxCell id="mNTclB5nGiLtDmcSX_Mv-29" value="&lt;div style=&quot;&quot;&gt;&lt;font color=&quot;#00cc00&quot;&gt;&lt;span style=&quot;caret-color: rgb(0, 204, 0);&quot;&gt;&lt;u&gt;listing_id&amp;nbsp;&lt;/u&gt;&lt;/span&gt;&lt;/font&gt;&lt;/div&gt;&lt;div style=&quot;&quot;&gt;&lt;font color=&quot;#00cc00&quot;&gt;&lt;span style=&quot;caret-color: rgb(0, 204, 0);&quot;&gt;expired&lt;/span&gt;&lt;/font&gt;&lt;/div&gt;&lt;div style=&quot;&quot;&gt;&lt;font color=&quot;#00cc00&quot;&gt;&lt;span style=&quot;caret-color: rgb(0, 204, 0);&quot;&gt;location_country&lt;/span&gt;&lt;/font&gt;&lt;/div&gt;&lt;div style=&quot;&quot;&gt;&lt;font color=&quot;#00cc00&quot;&gt;&lt;span style=&quot;caret-color: rgb(0, 204, 0);&quot;&gt;title&lt;/span&gt;&lt;/font&gt;&lt;/div&gt;&lt;div style=&quot;&quot;&gt;&lt;font color=&quot;#00cc00&quot;&gt;&lt;span style=&quot;caret-color: rgb(0, 204, 0);&quot;&gt;location_city&lt;/span&gt;&lt;/font&gt;&lt;/div&gt;&lt;div style=&quot;&quot;&gt;&lt;font color=&quot;#00cc00&quot;&gt;&lt;span style=&quot;caret-color: rgb(0, 204, 0);&quot;&gt;location_id&lt;/span&gt;&lt;/font&gt;&lt;/div&gt;&lt;div style=&quot;&quot;&gt;&lt;font color=&quot;#00cc00&quot;&gt;&lt;span style=&quot;caret-color: rgb(0, 204, 0);&quot;&gt;posted_date&lt;/span&gt;&lt;/font&gt;&lt;/div&gt;&lt;div style=&quot;&quot;&gt;&lt;font color=&quot;#00cc00&quot;&gt;&lt;span style=&quot;caret-color: rgb(0, 204, 0);&quot;&gt;pay&lt;/span&gt;&lt;/font&gt;&lt;/div&gt;&lt;blockquote style=&quot;margin: 0 0 0 40px; border: none; padding: 0px;&quot;&gt;&lt;div style=&quot;&quot;&gt;&lt;font color=&quot;#00cc00&quot;&gt;&lt;span style=&quot;caret-color: rgb(0, 204, 0);&quot;&gt;high&lt;/span&gt;&lt;/font&gt;&lt;/div&gt;&lt;div style=&quot;&quot;&gt;&lt;font color=&quot;#00cc00&quot;&gt;&lt;span style=&quot;caret-color: rgb(0, 204, 0);&quot;&gt;low&lt;/span&gt;&lt;/font&gt;&lt;/div&gt;&lt;div style=&quot;&quot;&gt;&lt;font color=&quot;#00cc00&quot;&gt;&lt;span style=&quot;caret-color: rgb(0, 204, 0);&quot;&gt;med&lt;/span&gt;&lt;/font&gt;&lt;/div&gt;&lt;div style=&quot;&quot;&gt;&lt;span style=&quot;caret-color: rgb(0, 204, 0); color: rgb(0, 204, 0);&quot;&gt;period&lt;/span&gt;&lt;/div&gt;&lt;/blockquote&gt;&lt;div style=&quot;&quot;&gt;&lt;font color=&quot;#00cc00&quot;&gt;&lt;span style=&quot;caret-color: rgb(0, 204, 0);&quot;&gt;salary&lt;/span&gt;&lt;/font&gt;&lt;/div&gt;&lt;blockquote style=&quot;margin: 0 0 0 40px; border: none; padding: 0px;&quot;&gt;&lt;div style=&quot;&quot;&gt;&lt;font color=&quot;#00cc00&quot;&gt;&lt;span style=&quot;caret-color: rgb(0, 204, 0);&quot;&gt;high&lt;/span&gt;&lt;/font&gt;&lt;/div&gt;&lt;div style=&quot;&quot;&gt;&lt;font color=&quot;#00cc00&quot;&gt;&lt;span style=&quot;caret-color: rgb(0, 204, 0);&quot;&gt;low&lt;/span&gt;&lt;/font&gt;&lt;/div&gt;&lt;div style=&quot;&quot;&gt;&lt;font color=&quot;#00cc00&quot;&gt;&lt;span style=&quot;caret-color: rgb(0, 204, 0);&quot;&gt;source&lt;/span&gt;&lt;/font&gt;&lt;/div&gt;&lt;/blockquote&gt;&lt;div style=&quot;&quot;&gt;&lt;font color=&quot;#00cc00&quot;&gt;&lt;span style=&quot;caret-color: rgb(0, 204, 0);&quot;&gt;description&lt;/span&gt;&lt;/font&gt;&lt;/div&gt;&lt;div style=&quot;&quot;&gt;&lt;font color=&quot;#00cc00&quot;&gt;&lt;span style=&quot;caret-color: rgb(0, 204, 0);&quot;&gt;discover_date&lt;/span&gt;&lt;/font&gt;&lt;/div&gt;&lt;div style=&quot;&quot;&gt;&lt;font color=&quot;#00cc00&quot;&gt;&lt;span style=&quot;caret-color: rgb(0, 204, 0);&quot;&gt;source&lt;/span&gt;&lt;/font&gt;&lt;/div&gt;&lt;div style=&quot;&quot;&gt;&lt;font color=&quot;#00cc00&quot;&gt;&lt;span style=&quot;caret-color: rgb(0, 204, 0);&quot;&gt;title_id&lt;/span&gt;&lt;/font&gt;&lt;/div&gt;" style="text;html=1;align=left;verticalAlign=middle;resizable=0;points=[];autosize=1;strokeColor=none;fillColor=none;" parent="mNTclB5nGiLtDmcSX_Mv-28" vertex="1">
          <mxGeometry x="10" y="22" width="110" height="290" as="geometry" />
        </mxCell>
        <mxCell id="I-GKPSnhCGYro7YhGB8j-4" value="has" style="rhombus;whiteSpace=wrap;html=1;fontSize=16;" parent="1" vertex="1">
          <mxGeometry x="343" y="320" width="60" height="60" as="geometry" />
        </mxCell>
        <mxCell id="I-GKPSnhCGYro7YhGB8j-5" value="has" style="rhombus;whiteSpace=wrap;html=1;fontSize=16;" parent="1" vertex="1">
          <mxGeometry x="343" y="440" width="60" height="60" as="geometry" />
        </mxCell>
        <mxCell id="I-GKPSnhCGYro7YhGB8j-6" value="has" style="rhombus;whiteSpace=wrap;html=1;fontSize=16;" parent="1" vertex="1">
          <mxGeometry x="425" y="500" width="60" height="60" as="geometry" />
        </mxCell>
        <mxCell id="I-GKPSnhCGYro7YhGB8j-7" value="has" style="rhombus;whiteSpace=wrap;html=1;fontSize=16;" parent="1" vertex="1">
          <mxGeometry x="538" y="510" width="60" height="60" as="geometry" />
        </mxCell>
        <mxCell id="I-GKPSnhCGYro7YhGB8j-11" value="" style="endArrow=none;html=1;rounded=0;exitX=0;exitY=0.5;exitDx=0;exitDy=0;entryX=1;entryY=0.5;entryDx=0;entryDy=0;edgeStyle=orthogonalEdgeStyle;" parent="1" source="mNTclB5nGiLtDmcSX_Mv-15" target="mNTclB5nGiLtDmcSX_Mv-13" edge="1">
          <mxGeometry width="50" height="50" relative="1" as="geometry">
            <mxPoint x="393" y="260" as="sourcePoint" />
            <mxPoint x="273" y="250" as="targetPoint" />
          </mxGeometry>
        </mxCell>
        <mxCell id="I-GKPSnhCGYro7YhGB8j-12" value="" style="endArrow=none;html=1;rounded=0;exitX=1;exitY=0.5;exitDx=0;exitDy=0;entryX=0;entryY=0.5;entryDx=0;entryDy=0;edgeStyle=orthogonalEdgeStyle;" parent="1" source="mNTclB5nGiLtDmcSX_Mv-4" target="I-GKPSnhCGYro7YhGB8j-4" edge="1">
          <mxGeometry width="50" height="50" relative="1" as="geometry">
            <mxPoint x="443" y="480" as="sourcePoint" />
            <mxPoint x="493" y="430" as="targetPoint" />
          </mxGeometry>
        </mxCell>
        <mxCell id="I-GKPSnhCGYro7YhGB8j-13" value="" style="endArrow=none;html=1;rounded=0;exitX=0;exitY=0.5;exitDx=0;exitDy=0;entryX=1;entryY=0.5;entryDx=0;entryDy=0;edgeStyle=orthogonalEdgeStyle;" parent="1" source="_ICEIOHpA0E_arMUJKk7-4" target="I-GKPSnhCGYro7YhGB8j-4" edge="1">
          <mxGeometry width="50" height="50" relative="1" as="geometry">
            <mxPoint x="293" y="408" as="sourcePoint" />
            <mxPoint x="353" y="370" as="targetPoint" />
          </mxGeometry>
        </mxCell>
        <mxCell id="I-GKPSnhCGYro7YhGB8j-14" value="" style="endArrow=none;html=1;rounded=0;exitX=1;exitY=0.5;exitDx=0;exitDy=0;entryX=0;entryY=0.25;entryDx=0;entryDy=0;" parent="1" source="mNTclB5nGiLtDmcSX_Mv-15" target="_ICEIOHpA0E_arMUJKk7-4" edge="1">
          <mxGeometry width="50" height="50" relative="1" as="geometry">
            <mxPoint x="443" y="490" as="sourcePoint" />
            <mxPoint x="493" y="440" as="targetPoint" />
          </mxGeometry>
        </mxCell>
        <mxCell id="I-GKPSnhCGYro7YhGB8j-16" value="" style="endArrow=none;html=1;rounded=0;exitX=1;exitY=0.5;exitDx=0;exitDy=0;entryX=0;entryY=0.75;entryDx=0;entryDy=0;edgeStyle=orthogonalEdgeStyle;" parent="1" source="I-GKPSnhCGYro7YhGB8j-5" target="_ICEIOHpA0E_arMUJKk7-4" edge="1">
          <mxGeometry width="50" height="50" relative="1" as="geometry">
            <mxPoint x="443" y="580" as="sourcePoint" />
            <mxPoint x="453" y="450" as="targetPoint" />
          </mxGeometry>
        </mxCell>
        <mxCell id="I-GKPSnhCGYro7YhGB8j-17" value="" style="endArrow=none;html=1;rounded=0;exitX=0.5;exitY=0;exitDx=0;exitDy=0;entryX=0.5;entryY=1;entryDx=0;entryDy=0;edgeStyle=orthogonalEdgeStyle;" parent="1" source="_ICEIOHpA0E_arMUJKk7-11" target="I-GKPSnhCGYro7YhGB8j-6" edge="1">
          <mxGeometry width="50" height="50" relative="1" as="geometry">
            <mxPoint x="590" y="510" as="sourcePoint" />
            <mxPoint x="640" y="460" as="targetPoint" />
          </mxGeometry>
        </mxCell>
        <mxCell id="I-GKPSnhCGYro7YhGB8j-18" value="" style="endArrow=none;html=1;rounded=0;exitX=0.5;exitY=0;exitDx=0;exitDy=0;entryX=0.25;entryY=1;entryDx=0;entryDy=0;edgeStyle=orthogonalEdgeStyle;" parent="1" source="I-GKPSnhCGYro7YhGB8j-6" target="_ICEIOHpA0E_arMUJKk7-4" edge="1">
          <mxGeometry width="50" height="50" relative="1" as="geometry">
            <mxPoint x="523" y="600" as="sourcePoint" />
            <mxPoint x="540" y="470" as="targetPoint" />
          </mxGeometry>
        </mxCell>
        <mxCell id="I-GKPSnhCGYro7YhGB8j-19" value="" style="endArrow=none;html=1;rounded=0;exitX=0.5;exitY=0;exitDx=0;exitDy=0;entryX=0.5;entryY=1;entryDx=0;entryDy=0;edgeStyle=orthogonalEdgeStyle;" parent="1" source="I-GKPSnhCGYro7YhGB8j-7" target="_ICEIOHpA0E_arMUJKk7-4" edge="1">
          <mxGeometry width="50" height="50" relative="1" as="geometry">
            <mxPoint x="536" y="510" as="sourcePoint" />
            <mxPoint x="610" y="470" as="targetPoint" />
          </mxGeometry>
        </mxCell>
        <mxCell id="I-GKPSnhCGYro7YhGB8j-20" value="" style="endArrow=none;html=1;rounded=0;exitX=0.5;exitY=1;exitDx=0;exitDy=0;entryX=0.5;entryY=0;entryDx=0;entryDy=0;edgeStyle=orthogonalEdgeStyle;" parent="1" source="I-GKPSnhCGYro7YhGB8j-7" target="_ICEIOHpA0E_arMUJKk7-13" edge="1">
          <mxGeometry width="50" height="50" relative="1" as="geometry">
            <mxPoint x="660" y="510" as="sourcePoint" />
            <mxPoint x="626" y="457" as="targetPoint" />
          </mxGeometry>
        </mxCell>
        <mxCell id="I-GKPSnhCGYro7YhGB8j-21" value="has" style="rhombus;whiteSpace=wrap;html=1;fontSize=16;" parent="1" vertex="1">
          <mxGeometry x="538" y="840" width="60" height="60" as="geometry" />
        </mxCell>
        <mxCell id="I-GKPSnhCGYro7YhGB8j-22" value="" style="endArrow=none;html=1;rounded=0;exitX=0.5;exitY=0;exitDx=0;exitDy=0;entryX=0.5;entryY=1;entryDx=0;entryDy=0;" parent="1" source="I-GKPSnhCGYro7YhGB8j-21" target="_ICEIOHpA0E_arMUJKk7-13" edge="1">
          <mxGeometry width="50" height="50" relative="1" as="geometry">
            <mxPoint x="530" y="770" as="sourcePoint" />
            <mxPoint x="600" y="810" as="targetPoint" />
          </mxGeometry>
        </mxCell>
        <mxCell id="I-GKPSnhCGYro7YhGB8j-23" value="" style="endArrow=none;html=1;rounded=0;exitX=0.5;exitY=0;exitDx=0;exitDy=0;entryX=0.5;entryY=1;entryDx=0;entryDy=0;" parent="1" source="mNTclB5nGiLtDmcSX_Mv-11" target="I-GKPSnhCGYro7YhGB8j-21" edge="1">
          <mxGeometry width="50" height="50" relative="1" as="geometry">
            <mxPoint x="578" y="850" as="sourcePoint" />
            <mxPoint x="578" y="820" as="targetPoint" />
          </mxGeometry>
        </mxCell>
        <mxCell id="I-GKPSnhCGYro7YhGB8j-24" value="has" style="rhombus;whiteSpace=wrap;html=1;fontSize=16;" parent="1" vertex="1">
          <mxGeometry x="790" y="360" width="60" height="60" as="geometry" />
        </mxCell>
        <mxCell id="I-GKPSnhCGYro7YhGB8j-25" value="" style="endArrow=none;html=1;rounded=0;exitX=0.5;exitY=0;exitDx=0;exitDy=0;entryX=0;entryY=0.75;entryDx=0;entryDy=0;edgeStyle=orthogonalEdgeStyle;" parent="1" source="I-GKPSnhCGYro7YhGB8j-24" target="mNTclB5nGiLtDmcSX_Mv-28" edge="1">
          <mxGeometry width="50" height="50" relative="1" as="geometry">
            <mxPoint x="638" y="530" as="sourcePoint" />
            <mxPoint x="930" y="350" as="targetPoint" />
          </mxGeometry>
        </mxCell>
        <mxCell id="I-GKPSnhCGYro7YhGB8j-26" value="" style="group" parent="1" vertex="1" connectable="0">
          <mxGeometry x="745" y="455" width="150" height="70" as="geometry" />
        </mxCell>
        <mxCell id="_ICEIOHpA0E_arMUJKk7-1" value="&lt;font color=&quot;#ff2600&quot;&gt;country_names&lt;/font&gt;" style="swimlane;whiteSpace=wrap;html=1;strokeColor=#ff2600;" parent="I-GKPSnhCGYro7YhGB8j-26" vertex="1">
          <mxGeometry width="150" height="70" as="geometry" />
        </mxCell>
        <mxCell id="_ICEIOHpA0E_arMUJKk7-3" value="&lt;div style=&quot;&quot;&gt;&lt;font color=&quot;#00cc00&quot;&gt;&lt;u&gt;name&lt;/u&gt;&lt;/font&gt;&lt;/div&gt;&lt;div style=&quot;&quot;&gt;&lt;font color=&quot;#00cc00&quot;&gt;&lt;span style=&quot;caret-color: rgb(0, 204, 0);&quot;&gt;code&lt;/span&gt;&lt;/font&gt;&lt;/div&gt;" style="text;html=1;align=left;verticalAlign=middle;resizable=0;points=[];autosize=1;strokeColor=none;fillColor=none;" parent="I-GKPSnhCGYro7YhGB8j-26" vertex="1">
          <mxGeometry x="5" y="26" width="50" height="40" as="geometry" />
        </mxCell>
        <mxCell id="I-GKPSnhCGYro7YhGB8j-27" value="has" style="rhombus;whiteSpace=wrap;html=1;fontSize=16;" parent="1" vertex="1">
          <mxGeometry x="790" y="560" width="60" height="60" as="geometry" />
        </mxCell>
        <mxCell id="I-GKPSnhCGYro7YhGB8j-28" value="" style="endArrow=none;html=1;rounded=0;exitX=0.5;exitY=1;exitDx=0;exitDy=0;edgeStyle=orthogonalEdgeStyle;entryX=0.5;entryY=0;entryDx=0;entryDy=0;" parent="1" source="I-GKPSnhCGYro7YhGB8j-24" target="_ICEIOHpA0E_arMUJKk7-1" edge="1">
          <mxGeometry width="50" height="50" relative="1" as="geometry">
            <mxPoint x="980" y="490" as="sourcePoint" />
            <mxPoint x="980" y="451" as="targetPoint" />
          </mxGeometry>
        </mxCell>
        <mxCell id="I-GKPSnhCGYro7YhGB8j-31" value="posts" style="rhombus;whiteSpace=wrap;html=1;fontSize=16;" parent="1" vertex="1">
          <mxGeometry x="720" y="230" width="112" height="114" as="geometry" />
        </mxCell>
        <mxCell id="I-GKPSnhCGYro7YhGB8j-32" value="" style="endArrow=none;html=1;rounded=0;exitX=1;exitY=0.5;exitDx=0;exitDy=0;edgeStyle=orthogonalEdgeStyle;entryX=0;entryY=0.5;entryDx=0;entryDy=0;" parent="1" source="I-GKPSnhCGYro7YhGB8j-31" target="mNTclB5nGiLtDmcSX_Mv-28" edge="1">
          <mxGeometry width="50" height="50" relative="1" as="geometry">
            <mxPoint x="950" y="480" as="sourcePoint" />
            <mxPoint x="950" y="441" as="targetPoint" />
          </mxGeometry>
        </mxCell>
        <mxCell id="I-GKPSnhCGYro7YhGB8j-33" value="" style="endArrow=none;html=1;rounded=0;exitX=1;exitY=0.5;exitDx=0;exitDy=0;edgeStyle=orthogonalEdgeStyle;entryX=0;entryY=0.5;entryDx=0;entryDy=0;" parent="1" source="_ICEIOHpA0E_arMUJKk7-4" target="I-GKPSnhCGYro7YhGB8j-31" edge="1">
          <mxGeometry width="50" height="50" relative="1" as="geometry">
            <mxPoint x="800" y="298" as="sourcePoint" />
            <mxPoint x="870" y="289" as="targetPoint" />
          </mxGeometry>
        </mxCell>
        <mxCell id="I-GKPSnhCGYro7YhGB8j-34" value="" style="group" parent="1" vertex="1" connectable="0">
          <mxGeometry x="745" y="655" width="150" height="111" as="geometry" />
        </mxCell>
        <mxCell id="mNTclB5nGiLtDmcSX_Mv-1" value="&lt;font color=&quot;#ff2600&quot;&gt;currency_exchange&lt;/font&gt;" style="swimlane;whiteSpace=wrap;html=1;strokeColor=#ff2600;" parent="I-GKPSnhCGYro7YhGB8j-34" vertex="1">
          <mxGeometry width="150" height="110" as="geometry" />
        </mxCell>
        <mxCell id="mNTclB5nGiLtDmcSX_Mv-2" value="&lt;div style=&quot;&quot;&gt;&lt;font color=&quot;#11cc0a&quot;&gt;&lt;span style=&quot;caret-color: rgb(17, 204, 10);&quot;&gt;three_digit_code&lt;/span&gt;&lt;/font&gt;&lt;/div&gt;&lt;div style=&quot;&quot;&gt;&lt;font color=&quot;#11cc0a&quot;&gt;&lt;span style=&quot;caret-color: rgb(17, 204, 10);&quot;&gt;currency&lt;/span&gt;&lt;/font&gt;&lt;/div&gt;&lt;div style=&quot;&quot;&gt;&lt;font color=&quot;#11cc0a&quot;&gt;&lt;span style=&quot;caret-color: rgb(17, 204, 10);&quot;&gt;number&lt;/span&gt;&lt;/font&gt;&lt;/div&gt;&lt;div style=&quot;&quot;&gt;&lt;font color=&quot;#11cc0a&quot;&gt;&lt;span style=&quot;caret-color: rgb(17, 204, 10);&quot;&gt;exchange_rate&lt;/span&gt;&lt;/font&gt;&lt;/div&gt;" style="text;html=1;align=left;verticalAlign=middle;resizable=0;points=[];autosize=1;strokeColor=none;fillColor=none;" parent="I-GKPSnhCGYro7YhGB8j-34" vertex="1">
          <mxGeometry x="10" y="31" width="110" height="70" as="geometry" />
        </mxCell>
        <mxCell id="I-GKPSnhCGYro7YhGB8j-43" value="" style="endArrow=none;html=1;rounded=0;entryX=0.5;entryY=1;entryDx=0;entryDy=0;exitX=0.5;exitY=0;exitDx=0;exitDy=0;" parent="1" source="I-GKPSnhCGYro7YhGB8j-27" target="_ICEIOHpA0E_arMUJKk7-1" edge="1">
          <mxGeometry width="50" height="50" relative="1" as="geometry">
            <mxPoint x="560" y="600" as="sourcePoint" />
            <mxPoint x="610" y="550" as="targetPoint" />
          </mxGeometry>
        </mxCell>
        <mxCell id="I-GKPSnhCGYro7YhGB8j-45" value="" style="endArrow=none;html=1;rounded=0;entryX=0.5;entryY=1;entryDx=0;entryDy=0;exitX=0.5;exitY=0;exitDx=0;exitDy=0;" parent="1" source="mNTclB5nGiLtDmcSX_Mv-1" target="I-GKPSnhCGYro7YhGB8j-27" edge="1">
          <mxGeometry width="50" height="50" relative="1" as="geometry">
            <mxPoint x="830" y="570" as="sourcePoint" />
            <mxPoint x="830" y="535" as="targetPoint" />
          </mxGeometry>
        </mxCell>
        <mxCell id="I-GKPSnhCGYro7YhGB8j-46" value="0:*" style="text;html=1;strokeColor=none;fillColor=none;align=center;verticalAlign=middle;whiteSpace=wrap;rounded=0;" parent="1" vertex="1">
          <mxGeometry x="436" y="182" width="33" height="20" as="geometry" />
        </mxCell>
        <mxCell id="I-GKPSnhCGYro7YhGB8j-47" value="1:1" style="text;html=1;strokeColor=none;fillColor=none;align=center;verticalAlign=middle;whiteSpace=wrap;rounded=0;" parent="1" vertex="1">
          <mxGeometry x="283" y="140" width="33" height="20" as="geometry" />
        </mxCell>
        <mxCell id="I-GKPSnhCGYro7YhGB8j-48" value="0:*" style="text;html=1;strokeColor=none;fillColor=none;align=center;verticalAlign=middle;whiteSpace=wrap;rounded=0;" parent="1" vertex="1">
          <mxGeometry x="438.5" y="264" width="33" height="20" as="geometry" />
        </mxCell>
        <mxCell id="I-GKPSnhCGYro7YhGB8j-49" value="1:1" style="text;html=1;strokeColor=none;fillColor=none;align=center;verticalAlign=middle;whiteSpace=wrap;rounded=0;" parent="1" vertex="1">
          <mxGeometry x="283" y="328" width="33" height="20" as="geometry" />
        </mxCell>
        <mxCell id="I-GKPSnhCGYro7YhGB8j-50" value="1:1" style="text;html=1;strokeColor=none;fillColor=none;align=center;verticalAlign=middle;whiteSpace=wrap;rounded=0;" parent="1" vertex="1">
          <mxGeometry x="280" y="507" width="33" height="20" as="geometry" />
        </mxCell>
        <mxCell id="I-GKPSnhCGYro7YhGB8j-51" value="0:*" style="text;html=1;strokeColor=none;fillColor=none;align=center;verticalAlign=middle;whiteSpace=wrap;rounded=0;" parent="1" vertex="1">
          <mxGeometry x="439" y="348" width="33" height="20" as="geometry" />
        </mxCell>
        <mxCell id="I-GKPSnhCGYro7YhGB8j-52" value="1:1" style="text;html=1;strokeColor=none;fillColor=none;align=center;verticalAlign=middle;whiteSpace=wrap;rounded=0;" parent="1" vertex="1">
          <mxGeometry x="290" y="590" width="33" height="20" as="geometry" />
        </mxCell>
        <mxCell id="I-GKPSnhCGYro7YhGB8j-53" value="0:*" style="text;html=1;strokeColor=none;fillColor=none;align=center;verticalAlign=middle;whiteSpace=wrap;rounded=0;" parent="1" vertex="1">
          <mxGeometry x="485" y="450" width="33" height="20" as="geometry" />
        </mxCell>
        <mxCell id="I-GKPSnhCGYro7YhGB8j-54" value="1:1" style="text;html=1;strokeColor=none;fillColor=none;align=center;verticalAlign=middle;whiteSpace=wrap;rounded=0;" parent="1" vertex="1">
          <mxGeometry x="580" y="580" width="33" height="20" as="geometry" />
        </mxCell>
        <mxCell id="I-GKPSnhCGYro7YhGB8j-55" value="0:*" style="text;html=1;strokeColor=none;fillColor=none;align=center;verticalAlign=middle;whiteSpace=wrap;rounded=0;" parent="1" vertex="1">
          <mxGeometry x="580" y="460" width="33" height="20" as="geometry" />
        </mxCell>
        <mxCell id="I-GKPSnhCGYro7YhGB8j-56" value="1:1" style="text;html=1;strokeColor=none;fillColor=none;align=center;verticalAlign=middle;whiteSpace=wrap;rounded=0;" parent="1" vertex="1">
          <mxGeometry x="785" y="633" width="33" height="20" as="geometry" />
        </mxCell>
        <mxCell id="I-GKPSnhCGYro7YhGB8j-57" value="1:1" style="text;html=1;strokeColor=none;fillColor=none;align=center;verticalAlign=middle;whiteSpace=wrap;rounded=0;" parent="1" vertex="1">
          <mxGeometry x="785" y="527" width="33" height="20" as="geometry" />
        </mxCell>
        <mxCell id="I-GKPSnhCGYro7YhGB8j-58" value="0:n" style="text;html=1;strokeColor=none;fillColor=none;align=center;verticalAlign=middle;whiteSpace=wrap;rounded=0;" parent="1" vertex="1">
          <mxGeometry x="818" y="430" width="33" height="20" as="geometry" />
        </mxCell>
        <mxCell id="I-GKPSnhCGYro7YhGB8j-59" value="0:*" style="text;html=1;strokeColor=none;fillColor=none;align=center;verticalAlign=middle;whiteSpace=wrap;rounded=0;" parent="1" vertex="1">
          <mxGeometry x="862" y="320" width="33" height="20" as="geometry" />
        </mxCell>
        <mxCell id="I-GKPSnhCGYro7YhGB8j-60" value="0:*" style="text;html=1;strokeColor=none;fillColor=none;align=center;verticalAlign=middle;whiteSpace=wrap;rounded=0;" parent="1" vertex="1">
          <mxGeometry x="670" y="264" width="33" height="20" as="geometry" />
        </mxCell>
        <mxCell id="I-GKPSnhCGYro7YhGB8j-61" value="1:1" style="text;html=1;strokeColor=none;fillColor=none;align=center;verticalAlign=middle;whiteSpace=wrap;rounded=0;" parent="1" vertex="1">
          <mxGeometry x="867" y="200" width="33" height="20" as="geometry" />
        </mxCell>
        <mxCell id="I-GKPSnhCGYro7YhGB8j-62" value="1:1" style="text;html=1;strokeColor=none;fillColor=none;align=center;verticalAlign=middle;whiteSpace=wrap;rounded=0;" parent="1" vertex="1">
          <mxGeometry x="570" y="910" width="33" height="20" as="geometry" />
        </mxCell>
        <mxCell id="I-GKPSnhCGYro7YhGB8j-63" value="0:*" style="text;html=1;strokeColor=none;fillColor=none;align=center;verticalAlign=middle;whiteSpace=wrap;rounded=0;" parent="1" vertex="1">
          <mxGeometry x="570" y="810" width="33" height="20" as="geometry" />
        </mxCell>
        <mxCell id="Pi-0Q24pRrTuSSWYCaG6-1" value="" style="endArrow=none;html=1;rounded=0;exitX=1;exitY=0.75;exitDx=0;exitDy=0;edgeStyle=orthogonalEdgeStyle;" parent="1" source="mNTclB5nGiLtDmcSX_Mv-7" edge="1">
          <mxGeometry width="50" height="50" relative="1" as="geometry">
            <mxPoint x="360" y="600" as="sourcePoint" />
            <mxPoint x="343" y="470" as="targetPoint" />
          </mxGeometry>
        </mxCell>
        <mxCell id="Pi-0Q24pRrTuSSWYCaG6-2" value="has" style="rhombus;whiteSpace=wrap;html=1;fontSize=16;" parent="1" vertex="1">
          <mxGeometry x="800" y="570" width="40" height="40" as="geometry" />
        </mxCell>
        <mxCell id="Pi-0Q24pRrTuSSWYCaG6-4" value="" style="endArrow=none;dashed=1;html=1;rounded=0;" parent="1" edge="1">
          <mxGeometry width="50" height="50" relative="1" as="geometry">
            <mxPoint x="756" y="706" as="sourcePoint" />
            <mxPoint x="849" y="706" as="targetPoint" />
          </mxGeometry>
        </mxCell>
      </root>
    </mxGraphModel>
  </diagram>
</mxfile>
